<svg xmlns="http://www.w3.org/2000/svg"  viewBox="0 0 64 64" width="50px" height="50px"><linearGradient id="CmWs~rqcSY6P0bfr0RPGUa" x1="32" x2="32" y1="986" y2="968.248" gradientTransform="matrix(1 0 0 -1 0 990)" gradientUnits="userSpaceOnUse"><stop offset="0" stop-color="#6dc7ff"/><stop offset="1" stop-color="#e6abff"/></linearGradient><path fill="url(#CmWs~rqcSY6P0bfr0RPGUa)" d="M32.547,11.633l-1.09-3.266C31.184,7.551,30.418,7,29.559,7h-9.117	c-0.859,0-1.625,0.551-1.898,1.367l-1.09,3.266C17.184,12.449,16.422,13,15.559,13H12c-1.105,0-2,0.895-2,2v4h44v-4	c0-1.105-0.895-2-2-2H34.441C33.578,13,32.816,12.449,32.547,11.633z"/><linearGradient id="CmWs~rqcSY6P0bfr0RPGUb" x1="32" x2="32" y1="6.404" y2="57.324" gradientUnits="userSpaceOnUse"><stop offset="0" stop-color="#1a6dff"/><stop offset="1" stop-color="#c822ff"/></linearGradient><path fill="url(#CmWs~rqcSY6P0bfr0RPGUb)" d="M53,12.184V11c0-1.652-1.348-3-3-3H32.383c-0.426-1-1.551-2-2.824-2h-9.113	c-1.277,0-2.402,0.805-2.828,2H14c-1.652,0-3,1.348-3,3v1.184C9.84,12.598,9,13.699,9,15v32c0,1.652,1.348,3,3,3h4.08	C16.033,50.328,16,50.66,16,51c0,3.86,3.14,7,7,7h20c2.757,0,5-2.243,5-5c0-1.13-0.391-2.162-1.026-3H49h3c1.652,0,3-1.348,3-3V15	C55,13.699,54.16,12.598,53,12.184z M50,10c0.551,0,1,0.449,1,1v1H34.441c-0.43,0-0.813-0.273-0.949-0.684L33.055,10H50z M13,11	c0-0.551,0.449-1,1-1h2.945l-0.438,1.316C16.371,11.727,15.988,12,15.559,12H13V11z M43,56H23c-2.757,0-5-2.243-5-5s2.243-5,5-5h1h3	v-2h-2v-1.5c0-2.481,2.019-4.5,4.5-4.5c2.446,0,4.463,1.991,4.496,4.438L34,42.44V45h2v-1.855C36.328,43.059,36.661,43,37,43	c2.206,0,4,1.794,4,4c0,0.339-0.059,0.672-0.145,1H39v2h2.578H42h1c1.654,0,3,1.346,3,3S44.654,56,43,56z M53,47	c0,0.551-0.449,1-1,1h-9h-0.084C42.972,47.67,43,47.337,43,47c0-3.309-2.691-6-6-6c-0.389,0-0.774,0.038-1.154,0.113	C35.205,38.198,32.589,36,29.5,36c-3.584,0-6.5,2.916-6.5,6.5V44c-2.785,0-5.189,1.639-6.315,4H12c-0.551,0-1-0.449-1-1V20h42V47z M53,18H11v-3c0-0.551,0.449-1,1-1h3.559c1.293,0,2.438-0.824,2.844-2.051l1.09-3.266C19.629,8.273,20.012,8,20.441,8h9.113	c0.434,0,0.816,0.273,0.953,0.688l1.086,3.262C32.004,13.176,33.148,14,34.441,14H52c0.551,0,1,0.449,1,1V18z"/><path fill="#74b8f2" d="M23,48.007c-1.587,0.037-2.864,1.329-2.864,2.925c0,1.596,1.277,2.888,2.864,2.925V48.007z"/></svg>