<svg xmlns="http://www.w3.org/2000/svg"  viewBox="0 0 64 64" width="50px" height="50px"><path fill="#b5c4e0" stroke="#8d6c9f" stroke-miterlimit="10" stroke-width="2" d="M28.34,53.617L4,23h14l19,24L28.34,53.617z"/><path fill="#b5c4e0" stroke="#8d6c9f" stroke-miterlimit="10" stroke-width="2" d="M15.001,16.065l18.353-4.918l2.071,7.727 l-18.353,4.918L15.001,16.065z"/><path fill="#f9dd8f" stroke="#8d6c9f" stroke-miterlimit="10" stroke-width="2" d="M42.25,21.18L38.11,5.73L34,8.42 c-0.72,0.475-1.054,1.357-0.83,2.19l2.36,8.81c0.222,0.831,0.951,1.427,1.81,1.48L42.25,21.18z"/><path fill="#b5c4e0" stroke="#8d6c9f" stroke-miterlimit="10" stroke-width="2" d="M42,4.69l4.14,15.45 c0.288,1.066-0.343,2.164-1.41,2.452c-0.01,0.003-0.02,0.005-0.03,0.008l0,0c-1.066,0.286-2.162-0.345-2.45-1.41L38.11,5.73 c-0.286-1.066,0.345-2.162,1.41-2.45l0,0c1.062-0.302,2.169,0.314,2.471,1.377C41.994,4.668,41.997,4.679,42,4.69z"/><path fill="#f9dd8f" stroke="#8d6c9f" stroke-miterlimit="10" stroke-width="2" d="M42.75,5.25l5.13-4 c0.215-0.168,0.49-0.24,0.76-0.2l6.46,0.93c0.394,0.058,0.717,0.345,0.82,0.73l0.52,1.95c0.144,0.533-0.172,1.082-0.705,1.226 C55.639,5.912,55.54,5.923,55.44,5.92l-5.53-0.09c-0.269-0.004-0.529,0.1-0.72,0.29l-5.43,5.38l-1.35-5.2 C42.302,5.913,42.436,5.5,42.75,5.25z M46.51,19.28l6.46,0.93c0.27,0.04,0.545-0.032,0.76-0.2l5.13-4 c0.298-0.239,0.434-0.627,0.35-1L58.69,13c-0.142-0.534-0.69-0.851-1.224-0.708c-0.09,0.024-0.176,0.06-0.256,0.108l-4.75,2.85 c-0.231,0.139-0.509,0.179-0.77,0.11l-7.39-1.94l1.38,5.16C45.795,18.956,46.12,19.23,46.51,19.28z"/><g><path fill="#c2cde7" d="M57,55v4c0.015,0.14,0.015,0.28,0,0.42c-0.201,0.938-1.041,1.601-2,1.58H5 c-0.959,0.021-1.799-0.642-2-1.58C2.985,59.28,2.985,59.14,3,59v-4c0-2.209,1.791-4,4-4h46C55.209,51,57,52.791,57,55z"/><path fill="#b5c4e0" d="M57,59.42c-0.201,0.938-1.041,1.601-2,1.58H5c-0.959,0.021-1.799-0.642-2-1.58 c0.29-1.98,1.999-3.441,4-3.42h46C55.001,55.979,56.71,57.44,57,59.42z"/><path fill="none" stroke="#8d6c9f" stroke-miterlimit="10" stroke-width="2" d="M57,55v4c0.015,0.14,0.015,0.28,0,0.42 c-0.201,0.938-1.041,1.601-2,1.58H5c-0.959,0.021-1.799-0.642-2-1.58C2.985,59.28,2.985,59.14,3,59v-4c0-2.209,1.791-4,4-4h46 C55.209,51,57,52.791,57,55z"/><path fill="#f9dd8f" stroke="#8d6c9f" stroke-miterlimit="10" stroke-width="2" d="M16,51h28l-1.72-3.45 c-0.169-0.336-0.513-0.549-0.89-0.55H18.62c-0.377,0.001-0.721,0.214-0.89,0.55L16,51z"/></g><g><path fill="#8d6c9f" d="M13,54c-0.552,0-1,0.448-1,1v2c0,0.552,0.448,1,1,1s1-0.448,1-1v-2C14,54.448,13.552,54,13,54z"/><path fill="#8d6c9f" d="M8,54c-0.552,0-1,0.448-1,1v2c0,0.552,0.448,1,1,1s1-0.448,1-1v-2C9,54.448,8.552,54,8,54z"/><path fill="#8d6c9f" d="M28,58c0.552,0,1-0.448,1-1v-2c0-0.552-0.448-1-1-1s-1,0.448-1,1v2C27,57.552,27.448,58,28,58z"/><path fill="#8d6c9f" d="M33,58c0.552,0,1-0.448,1-1v-2c0-0.552-0.448-1-1-1s-1,0.448-1,1v2C32,57.552,32.448,58,33,58z"/><path fill="#8d6c9f" d="M38,58c0.552,0,1-0.448,1-1v-2c0-0.552-0.448-1-1-1s-1,0.448-1,1v2C37,57.552,37.448,58,38,58z"/><path fill="#8d6c9f" d="M43,58c0.552,0,1-0.448,1-1v-2c0-0.552-0.448-1-1-1s-1,0.448-1,1v2C42,57.552,42.448,58,43,58z"/><path fill="#8d6c9f" d="M48,58c0.552,0,1-0.448,1-1v-2c0-0.552-0.448-1-1-1s-1,0.448-1,1v2C47,57.552,47.448,58,48,58z"/><path fill="#8d6c9f" d="M53,58c0.552,0,1-0.448,1-1v-2c0-0.552-0.448-1-1-1s-1,0.448-1,1v2C52,57.552,52.448,58,53,58z"/><path fill="#8d6c9f" d="M18,58c0.552,0,1-0.448,1-1v-2c0-0.552-0.448-1-1-1s-1,0.448-1,1v2C17,57.552,17.448,58,18,58z"/><path fill="#8d6c9f" d="M23,58c0.552,0,1-0.448,1-1v-2c0-0.552-0.448-1-1-1s-1,0.448-1,1v2C22,57.552,22.448,58,23,58z"/></g><g><path fill="#ced8ed" d="M11,13C5.477,13,1,17.477,1,23s4.477,10,10,10s10-4.477,10-10S16.523,13,11,13z"/><path fill="#dae2ef" d="M3.93,15.93c-3.904,3.905-3.904,10.235,0,14.14l14.14-14.14C14.165,12.026,7.835,12.026,3.93,15.93 z"/><circle cx="11" cy="23" r="4" fill="#f9dd8f" stroke="#8d6c9f" stroke-miterlimit="10" stroke-width="2"/><path fill="#8d6c9f" d="M11,18c-2.761,0-5,2.239-5,5s2.239,5,5,5s5-2.239,5-5S13.761,18,11,18z M11,26 c-1.657,0-3-1.343-3-3s1.343-3,3-3s3,1.343,3,3S12.657,26,11,26z"/><path fill="none" stroke="#8d6c9f" stroke-miterlimit="10" stroke-width="2" d="M11,13C5.477,13,1,17.477,1,23s4.477,10,10,10 s10-4.477,10-10S16.523,13,11,13z"/></g></svg>