<svg xmlns="http://www.w3.org/2000/svg"  viewBox="0 0 64 64" width="100px" height="100px"><linearGradient id="seYAyQleu52cNr9DvdspGa" x1="32" x2="32" y1="10.283" y2="23.94" gradientUnits="userSpaceOnUse"><stop offset="0" stop-color="#6dc7ff"/><stop offset="1" stop-color="#e6abff"/></linearGradient><path fill="url(#seYAyQleu52cNr9DvdspGa)" d="M57,20v6c0-2.21-1.79-4-4-4H11c-2.21,0-4,1.79-4,4V16c0-2.21,1.79-4,4-4h9.5	c0.94,0,1.83,0.44,2.4,1.2l1.5,2c0.38,0.5,0.97,0.8,1.6,0.8h27C55.21,16,57,17.79,57,20z"/><linearGradient id="seYAyQleu52cNr9DvdspGb" x1="51" x2="51" y1="24.37" y2="30.786" gradientUnits="userSpaceOnUse"><stop offset="0" stop-color="#6dc7ff"/><stop offset="1" stop-color="#e6abff"/></linearGradient><path fill="url(#seYAyQleu52cNr9DvdspGb)" d="M48,25h4c1.105,0,2,0.895,2,2v4L48,25z"/><linearGradient id="seYAyQleu52cNr9DvdspGc" x1="32" x2="32" y1="9.011" y2="57.558" gradientUnits="userSpaceOnUse"><stop offset="0" stop-color="#1a6dff"/><stop offset="1" stop-color="#c822ff"/></linearGradient><path fill="url(#seYAyQleu52cNr9DvdspGc)" d="M53,15H26c-0.313,0-0.612-0.149-0.8-0.4l-1.5-2c-0.753-1.001-1.949-1.6-3.2-1.6H11	c-2.757,0-5,2.243-5,5v10v5v20c0,2.757,2.243,5,5,5h42c2.757,0,5-2.243,5-5V30v-4v-6C58,17.243,55.757,15,53,15z M11,13h9.5	c0.626,0,1.225,0.299,1.601,0.8l1.499,2c0.563,0.751,1.46,1.2,2.4,1.2h27c1.654,0,3,1.346,3,3v2.026C55.162,21.391,54.13,21,53,21	H11c-1.13,0-2.162,0.391-3,1.026V16C8,14.346,9.346,13,11,13z M56,51c0,1.654-1.346,3-3,3H11c-1.302,0-2.402-0.839-2.816-2H18v-2H8	v-2h8v-2H8v-2h6v-2H8V31v-5c0-1.654,1.346-3,3-3h42c1.654,0,3,1.346,3,3v4V51z"/></svg>