<svg xmlns="http://www.w3.org/2000/svg"  viewBox="0 0 64 64" width="50px" height="50px"><path fill="#85cbf8" d="M51,17H13c-1.105,0-2,0.895-2,2v35c0,1.105,0.895,2,2,2h38c1.105,0,2-0.895,2-2V19 C53,17.895,52.105,17,51,17z"/><path fill="#7bbeeb" d="M42,17h11v39H42V17z"/><path fill="#ace3ff" d="M11,17h11v39H11V17z"/><path fill="none" stroke="#8d6c9f" stroke-miterlimit="10" stroke-width="2" d="M51,17H13c-1.105,0-2,0.895-2,2v35 c0,1.105,0.895,2,2,2h38c1.105,0,2-0.895,2-2V19C53,17.895,52.105,17,51,17z"/><path fill="#7bbeeb" stroke="#8d6c9f" stroke-miterlimit="10" stroke-width="2" d="M11,26v14l-5.091-1.621 C5.375,38.156,5,37.356,5,36.439v-6.877c0-0.918,0.375-1.718,0.909-1.94L11,26z M53,26v14l5.091-1.621 C58.625,38.156,59,37.356,59,36.439v-6.877c0-0.918-0.375-1.718-0.909-1.94L53,26z"/><path fill="#f283a5" d="M39,17H25l1.621-8.485C26.844,7.625,27.644,7,28.562,7h6.877c0.918,0,1.718,0.625,1.94,1.515L39,17z"/><circle cx="22" cy="30" r="5" fill="#f283a5" stroke="#8d6c9f" stroke-miterlimit="10" stroke-width="2"/><circle cx="22" cy="30" r="2" fill="#faefde"/><circle cx="42" cy="30" r="5" fill="#f283a5" stroke="#8d6c9f" stroke-miterlimit="10" stroke-width="2"/><circle cx="42" cy="30" r="2" fill="#faefde"/><g><path fill="#fff8ee" stroke="#8d6c9f" stroke-miterlimit="10" stroke-width="2" d="M40,45H24c-0.552,0-1-0.448-1-1v-4 c0-0.552,0.448-1,1-1h16c0.552,0,1,0.448,1,1v4C41,44.552,40.552,45,40,45z"/></g><g><path fill="#8d6c9f" d="M17,53c-0.552,0-1-0.447-1-1v-2c0-0.553,0.448-1,1-1s1,0.447,1,1v2C18,52.553,17.552,53,17,53z M22,53c-0.552,0-1-0.447-1-1v-2c0-0.553,0.448-1,1-1s1,0.447,1,1v2C23,52.553,22.552,53,22,53z M27,53c-0.552,0-1-0.447-1-1v-2 c0-0.553,0.448-1,1-1s1,0.447,1,1v2C28,52.553,27.552,53,27,53z M32,53c-0.552,0-1-0.447-1-1v-2c0-0.553,0.448-1,1-1 c0.552,0,1,0.447,1,1v2C33,52.553,32.552,53,32,53z M37,53c-0.552,0-1-0.447-1-1v-2c0-0.553,0.448-1,1-1s1,0.447,1,1v2 C38,52.553,37.552,53,37,53z M42,53c-0.552,0-1-0.447-1-1v-2c0-0.553,0.448-1,1-1s1,0.447,1,1v2C43,52.553,42.552,53,42,53z M47,53 c-0.552,0-1-0.447-1-1v-2c0-0.553,0.448-1,1-1s1,0.447,1,1v2C48,52.553,47.552,53,47,53z"/></g><g><circle cx="7" cy="12" r="3" fill="#f283a5" stroke="#8d6c9f" stroke-miterlimit="10" stroke-width="2"/><line x1="7" x2="7" y1="15" y2="27" fill="none" stroke="#8d6c9f" stroke-miterlimit="10" stroke-width="2"/><g><circle cx="57" cy="12" r="3" fill="#f283a5" stroke="#8d6c9f" stroke-miterlimit="10" stroke-width="2"/><line x1="57" x2="57" y1="15" y2="27" fill="none" stroke="#8d6c9f" stroke-miterlimit="10" stroke-width="2"/></g></g><g><path fill="none" stroke="#8d6c9f" stroke-miterlimit="10" stroke-width="2" d="M39,17H25l1.621-8.485 C26.844,7.625,27.644,7,28.562,7h6.877c0.918,0,1.718,0.625,1.94,1.515L39,17z"/></g><g><path fill="#f9dd8f" stroke="#8d6c9f" stroke-miterlimit="10" stroke-width="2" d="M39,17H25c-1.105,0-2-0.895-2-2l0,0 c0-1.105,0.895-2,2-2h14c1.105,0,2,0.895,2,2l0,0C41,16.105,40.105,17,39,17z"/></g></svg>