<svg xmlns="http://www.w3.org/2000/svg"  viewBox="0 0 64 64" width="100px" height="100px"><linearGradient id="l_AeX4O0VwQmK5J45pICca" x1="32" x2="32" y1="986" y2="968.248" gradientTransform="matrix(1 0 0 -1 0 990)" gradientUnits="userSpaceOnUse"><stop offset="0" stop-color="#6dc7ff"/><stop offset="1" stop-color="#e6abff"/></linearGradient><path fill="url(#l_AeX4O0VwQmK5J45pICca)" d="M32.547,11.633l-1.09-3.266C31.184,7.551,30.418,7,29.559,7h-9.117	c-0.859,0-1.625,0.551-1.898,1.367l-1.09,3.266C17.184,12.449,16.422,13,15.559,13H12c-1.105,0-2,0.895-2,2v4h44v-4	c0-1.105-0.895-2-2-2H34.441C33.578,13,32.816,12.449,32.547,11.633z"/><linearGradient id="l_AeX4O0VwQmK5J45pICcb" x1="45.044" x2="45.044" y1="983.581" y2="978.075" gradientTransform="matrix(1 0 0 -1 -10.544 1015.456)" gradientUnits="userSpaceOnUse"><stop offset="0" stop-color="#6dc7ff"/><stop offset="1" stop-color="#e6abff"/></linearGradient><path fill="url(#l_AeX4O0VwQmK5J45pICcb)" d="M37,37c0-2.762-2.238-5-5-5v5H37z"/><linearGradient id="l_AeX4O0VwQmK5J45pICcc" x1="32" x2="32" y1="7" y2="54.83" gradientUnits="userSpaceOnUse"><stop offset="0" stop-color="#1a6dff"/><stop offset="1" stop-color="#c822ff"/></linearGradient><path fill="url(#l_AeX4O0VwQmK5J45pICcc)" d="M53,12.184V11c0-1.652-1.348-3-3-3H32.383c-0.426-1-1.551-2-2.824-2h-9.113 c-1.277,0-2.402,0.805-2.828,2H14c-1.652,0-3,1.348-3,3v1.184C9.84,12.598,9,13.699,9,15v32c0,1.652,1.348,3,3,3h14v-2H12 c-0.551,0-1-0.449-1-1V20h42v27c0,0.551-0.449,1-1,1H38v2h7h4h3c1.652,0,3-1.348,3-3V15C55,13.699,54.16,12.598,53,12.184z M50,10 c0.551,0,1,0.449,1,1v1H34.441c-0.43,0-0.813-0.273-0.949-0.684L33.055,10H50z M13,11c0-0.551,0.449-1,1-1h2.945l-0.438,1.316 C16.371,11.727,15.988,12,15.559,12H13V11z M53,18H11v-3c0-0.551,0.449-1,1-1h3.559c1.293,0,2.438-0.824,2.844-2.051l1.09-3.266 C19.629,8.273,20.012,8,20.441,8h9.113c0.434,0,0.816,0.273,0.953,0.688l1.086,3.262C32.004,13.176,33.148,14,34.441,14H52 c0.551,0,1,0.449,1,1V18z"/><linearGradient id="l_AeX4O0VwQmK5J45pICcd" x1="32" x2="32" y1="7" y2="54.83" gradientUnits="userSpaceOnUse"><stop offset="0" stop-color="#1a6dff"/><stop offset="1" stop-color="#c822ff"/></linearGradient><path fill="url(#l_AeX4O0VwQmK5J45pICcd)" d="M33,45.941c4.493-0.5,8-4.317,8-8.941c0-4.962-4.038-9-9-9s-9,4.038-9,9 c0,4.624,3.507,8.441,8,8.941V48h-3v7c0,1.652,1.348,3,3,3h2c1.652,0,3-1.348,3-3v-7h-3V45.941z M25,37c0-3.86,3.14-7,7-7 s7,3.14,7,7s-3.14,7-7,7S25,40.86,25,37z M34,55c0,0.551-0.449,1-1,1h-2c-0.551,0-1-0.449-1-1v-1h4V55z M34,50v2h-4v-2H34z"/></svg>